<mxfile host="app.diagrams.net" modified="2024-07-26T03:22:09.865Z" agent="Mozilla/5.0 (Macintosh; Intel Mac OS X 10_15_7) AppleWebKit/537.36 (KHTML, like Gecko) Chrome/126.0.0.0 Safari/537.36" version="24.6.3" etag="isgAWnn9mRDaUHL7m6Ph" type="github">
  <diagram name="第 1 页" id="46zeq4mNrFrmfoBcorIA">
    <mxGraphModel>
      <root>
        <mxCell id="0" />
        <mxCell id="1" parent="0" />
      </root>
    </mxGraphModel>
  </diagram>
</mxfile>
